<svg id="visual" viewBox="0 0 960 540" width="960" height="540" xmlns="http://www.w3.org/2000/svg" xmlns:xlink="http://www.w3.org/1999/xlink" version="1.1"><path d="M0 115L22.8 113.5C45.7 112 91.3 109 137 119.5C182.7 130 228.3 154 274 165.5C319.7 177 365.3 176 411.2 177.8C457 179.7 503 184.3 548.8 179.3C594.7 174.3 640.3 159.7 686 160.8C731.7 162 777.3 179 823 186.2C868.7 193.3 914.3 190.7 937.2 189.3L960 188L960 0L937.2 0C914.3 0 868.7 0 823 0C777.3 0 731.7 0 686 0C640.3 0 594.7 0 548.8 0C503 0 457 0 411.2 0C365.3 0 319.7 0 274 0C228.3 0 182.7 0 137 0C91.3 0 45.7 0 22.8 0L0 0Z" fill="#fb6f92" stroke-linecap="round" stroke-linejoin="miter"></path></svg>